<?xml version="1.0" encoding="utf-8"?>
<svg version="1.1" xmlns:xlink="http://www.w3.org/1999/xlink" width="45px" height="40px" xmlns="http://www.w3.org/2000/svg">
  <g transform="matrix(1 0 0 1 -843 -400 )">
    <path d="M 26.66015625 35.7886904761905  C 27.01171875 35.5208333333333  27.1875 35.1388888888889  27.1875 34.6428571428571  L 27 32.9761904761905  L 27 19.047619047619  L 27.1875 13.3333333333333  L 17.8125 13.3333333333333  L 18 19.047619047619  L 18 32.9761904761905  L 17.8125 34.6428571428571  C 17.8125 35.1388888888889  17.98828125 35.5208333333333  18.33984375 35.7886904761905  C 18.69140625 36.0565476190476  19.140625 36.1904761904762  19.6875 36.1904761904762  L 25.3125 36.1904761904762  C 25.859375 36.1904761904762  26.30859375 36.0565476190476  26.66015625 35.7886904761905  Z M 11.8359375 8.69047619047619  C 12.3828125 9.24603174603174  13.046875 9.52380952380953  13.828125 9.52380952380953  L 19.541015625 9.52380952380953  L 15.849609375 4.73214285714286  C 15.341796875 4.11706349206349  14.66796875 3.80952380952381  13.828125 3.80952380952381  C 13.046875 3.80952380952381  12.3828125 4.08730158730159  11.8359375 4.64285714285714  C 11.2890625 5.19841269841269  11.015625 5.87301587301587  11.015625 6.66666666666667  C 11.015625 7.46031746031746  11.2890625 8.13492063492063  11.8359375 8.69047619047619  Z M 33.1640625 8.69047619047619  C 33.7109375 8.13492063492063  33.984375 7.46031746031746  33.984375 6.66666666666667  C 33.984375 5.87301587301587  33.7109375 5.19841269841269  33.1640625 4.64285714285714  C 32.6171875 4.08730158730159  31.953125 3.80952380952381  31.171875 3.80952380952381  C 30.33203125 3.80952380952381  29.658203125 4.11706349206349  29.150390625 4.73214285714286  L 25.48828125 9.52380952380953  L 31.171875 9.52380952380953  C 31.953125 9.52380952380953  32.6171875 9.24603174603174  33.1640625 8.69047619047619  Z M 44.736328125 13.6011904761905  C 44.912109375 13.7797619047619  45 14.0079365079365  45 14.2857142857143  L 45 23.8095238095238  C 45 24.0873015873016  44.912109375 24.3154761904762  44.736328125 24.4940476190476  C 44.560546875 24.672619047619  44.3359375 24.7619047619048  44.0625 24.7619047619048  L 41 24.7619047619048  L 41 37.1428571428571  C 41.25 37.9365079365079  40.9765625 38.6111111111111  40.4296875 39.1666666666667  C 39.8828125 39.7222222222222  39.21875 40  38.4375 40  L 6.5625 40  C 5.78125 40  5.1171875 39.7222222222222  4.5703125 39.1666666666667  C 4.0234375 38.6111111111111  3.75 37.9365079365079  4 37.1428571428571  L 4 24.7619047619048  L 0.9375 24.7619047619048  C 0.6640625 24.7619047619048  0.439453125 24.672619047619  0.263671875 24.4940476190476  C 0.087890625 24.3154761904762  0 24.0873015873016  0 23.8095238095238  L 0 14.2857142857143  C 0 14.0079365079365  0.087890625 13.7797619047619  0.263671875 13.6011904761905  C 0.439453125 13.422619047619  0.6640625 13.3333333333333  0.9375 14  L 13.828125 14  C 12.01171875 13.3333333333333  10.4638671875 12.6835317460317  9.1845703125 11.3839285714286  C 7.9052734375 10.0843253968254  7.265625 8.51190476190476  7.265625 6.66666666666667  C 7.265625 4.82142857142857  7.9052734375 3.24900793650793  9.1845703125 1.94940476190476  C 10.4638671875 0.649801587301586  12.01171875 0  13.828125 0  C 15.91796875 0  17.55859375 0.763888888888884  18.75 2.29166666666667  L 22.5 7.20238095238095  L 26.25 2.29166666666667  C 27.44140625 0.763888888888884  29.08203125 0  31.171875 0  C 32.98828125 0  34.5361328125 0.649801587301586  35.8154296875 1.94940476190476  C 37.0947265625 3.24900793650793  37.734375 4.82142857142857  37.734375 6.66666666666667  C 37.734375 8.51190476190476  37.0947265625 10.0843253968254  35.8154296875 11.3839285714286  C 34.5361328125 12.6835317460317  32.98828125 13.3333333333333  31.171875 14  L 44.0625 14  C 44.3359375 13.3333333333333  44.560546875 13.422619047619  44.736328125 13.6011904761905  Z " fill-rule="nonzero" fill="#584cd9" stroke="none" transform="matrix(1 0 0 1 843 400 )" />
  </g>
</svg>