<?xml version="1.0" encoding="utf-8"?>
<svg version="1.1" xmlns:xlink="http://www.w3.org/1999/xlink" width="36px" height="40px" xmlns="http://www.w3.org/2000/svg">
  <g transform="matrix(1 0 0 1 -633 -200 )">
    <path d="M 9.33238636363636 30.4947916666667  C 9.65625 30.8246527777778  9.81818181818182 31.2152777777778  9.81818181818182 31.6666666666667  C 9.81818181818182 32.1180555555556  9.65625 32.5086805555556  9.33238636363636 32.8385416666667  C 9.00852272727273 33.1684027777778  8.625 33.3333333333333  8.18181818181818 33.3333333333333  C 7.73863636363636 33.3333333333333  7.35511363636364 33.1684027777778  7.03125 32.8385416666667  C 6.70738636363636 32.5086805555556  6.54545454545455 32.1180555555556  6.54545454545455 31.6666666666667  C 6.54545454545455 31.2152777777778  6.70738636363636 30.8246527777778  7.03125 30.4947916666667  C 7.35511363636364 30.1649305555556  7.73863636363636 30  8.18181818181818 30  C 8.625 30  9.00852272727273 30.1649305555556  9.33238636363636 30.4947916666667  Z M 35.859375 29.84375  C 35.953125 30.9375  36 32.0746527777778  36 33.2552083333333  C 36 35.3559027777778  35.3778409090909 37.0052083333333  34.1335227272727 38.203125  C 32.8892045454545 39.4010416666667  31.2357954545455 40  29.1732954545455 40  L 6.82670454545455 40  C 4.76420454545455 40  3.11079545454545 39.4010416666667  1.86647727272727 38.203125  C 0.622159090909091 37.0052083333333  0 35.3559027777778  0 33.2552083333333  C 0 32.0746527777778  0.046875 30.9375  0.140625 29.84375  C 0.234375 28.75  0.438920454545454 27.5520833333333  0.754261363636364 26.25  C 1.06960227272727 24.9479166666667  1.47443181818182 23.7977430555556  1.96875 22.7994791666667  C 2.46306818181818 21.8012152777778  3.15340909090909 20.9071180555556  4.03977272727273 20.1171875  C 4.92613636363636 19.3272569444444  5.94886363636364 18.8020833333333  7.10795454545455 18.5416666666667  C 6.73295454545455 19.4444444444444  6.54545454545455 20.4861111111111  6.54545454545455 21.6666666666667  L 6.54545454545455 26.953125  C 5.55681818181818 27.3003472222222  4.76420454545455 27.9079861111111  4.16761363636364 28.7760416666667  C 3.57102272727273 29.6440972222222  3.27272727272727 30.6076388888889  3.27272727272727 31.6666666666667  C 3.27272727272727 33.0555555555556  3.75 34.2361111111111  4.70454545454545 35.2083333333333  C 5.65909090909091 36.1805555555556  6.81818181818182 36.6666666666667  8.18181818181818 36.6666666666667  C 9.54545454545455 36.6666666666667  10.7045454545455 36.1805555555556  11.6590909090909 35.2083333333333  C 12.6136363636364 34.2361111111111  13.0909090909091 33.0555555555556  13.0909090909091 31.6666666666667  C 13.0909090909091 30.6076388888889  12.7883522727273 29.6440972222222  12.1832386363636 28.7760416666667  C 11.578125 27.9079861111111  10.7897727272727 27.3003472222222  9.81818181818182 26.953125  L 9.81818181818182 21.6666666666667  C 9.81818181818182 20.5902777777778  10.03125 19.7829861111111  10.4573863636364 19.2447916666667  C 12.7073863636364 21.0503472222222  15.2215909090909 21.953125  18 21.953125  C 20.7784090909091 21.953125  23.2926136363636 21.0503472222222  25.5426136363636 19.2447916666667  C 25.96875 19.7829861111111  26.1818181818182 20.5902777777778  26.1818181818182 21.6666666666667  L 26.1818181818182 23.3333333333333  C 24.375 23.3333333333333  22.8323863636364 23.984375  21.5539772727273 25.2864583333333  C 20.2755681818182 26.5885416666667  19.6363636363636 28.1597222222222  19.6363636363636 30  L 19.6363636363636 32.3177083333333  C 19.0909090909091 32.8211805555556  18.8181818181818 33.4375  18.8181818181818 34.1666666666667  C 18.8181818181818 34.8611111111111  19.0568181818182 35.4513888888889  19.5340909090909 35.9375  C 20.0113636363636 36.4236111111111  20.5909090909091 36.6666666666667  21.2727272727273 36.6666666666667  C 21.9545454545455 36.6666666666667  22.5340909090909 36.4236111111111  23.0113636363636 35.9375  C 23.4886363636364 35.4513888888889  23.7272727272727 34.8611111111111  23.7272727272727 34.1666666666667  C 23.7272727272727 33.4375  23.4545454545455 32.8211805555556  22.9090909090909 32.3177083333333  L 22.9090909090909 30  C 22.9090909090909 29.0972222222222  23.2329545454545 28.3159722222222  23.8806818181818 27.65625  C 24.5284090909091 26.9965277777778  25.2954545454546 26.6666666666667  26.1818181818182 26.6666666666667  C 27.0681818181818 26.6666666666667  27.8352272727273 26.9965277777778  28.4829545454545 27.65625  C 29.1306818181818 28.3159722222222  29.4545454545455 29.0972222222222  29.4545454545455 30  L 29.4545454545455 32.3177083333333  C 28.9090909090909 32.8211805555556  28.6363636363636 33.4375  28.6363636363636 34.1666666666667  C 28.6363636363636 34.8611111111111  28.875 35.4513888888889  29.3522727272727 35.9375  C 29.8295454545455 36.4236111111111  30.4090909090909 36.6666666666667  31.0909090909091 36.6666666666667  C 31.7727272727273 36.6666666666667  32.3522727272727 36.4236111111111  32.8295454545455 35.9375  C 33.3068181818182 35.4513888888889  33.5454545454545 34.8611111111111  33.5454545454545 34.1666666666667  C 33.5454545454545 33.4375  33.2727272727273 32.8211805555556  32.7272727272727 32.3177083333333  L 32.7272727272727 30  C 32.7272727272727 28.8194444444444  32.4332386363636 27.7126736111111  31.8451704545455 26.6796875  C 31.2571022727273 25.6467013888889  30.4602272727273 24.8350694444444  29.4545454545455 24.2447916666667  C 29.4545454545455 24.0711805555556  29.4588068181818 23.7022569444444  29.4673295454545 23.1380208333333  C 29.4758522727273 22.5737847222222  29.4758522727273 22.1571180555556  29.4673295454545 21.8880208333333  C 29.4588068181818 21.6189236111111  29.4375 21.2586805555556  29.4034090909091 20.8072916666667  C 29.3693181818182 20.3559027777778  29.3096590909091 19.9479166666667  29.2244318181818 19.5833333333333  C 29.1392045454545 19.21875  29.0284090909091 18.8715277777778  28.8920454545455 18.5416666666667  C 30.0511363636364 18.8020833333333  31.0738636363636 19.3272569444444  31.9602272727273 20.1171875  C 32.8465909090909 20.9071180555556  33.5369318181818 21.8012152777778  34.03125 22.7994791666667  C 34.5255681818182 23.7977430555556  34.9303977272727 24.9479166666667  35.2457386363636 26.25  C 35.5610795454545 27.5520833333333  35.765625 28.75  35.859375 29.84375  Z M 24.9417613636364 2.9296875  C 26.859375 4.8828125  27.8181818181818 7.23958333333333  27.8181818181818 10  C 27.8181818181818 12.7604166666667  26.859375 15.1171875  24.9417613636364 17.0703125  C 23.0241477272727 19.0234375  20.7102272727273 20  18 20  C 15.2897727272727 20  12.9758522727273 19.0234375  11.0582386363636 17.0703125  C 9.140625 15.1171875  8.18181818181818 12.7604166666667  8.18181818181818 10  C 8.18181818181818 7.23958333333333  9.140625 4.8828125  11.0582386363636 2.9296875  C 12.9758522727273 0.9765625  15.2897727272727 0  18 0  C 20.7102272727273 0  23.0241477272727 0.9765625  24.9417613636364 2.9296875  Z " fill-rule="nonzero" fill="#584cd9" stroke="none" transform="matrix(1 0 0 1 633 200 )" />
  </g>
</svg>