<?xml version="1.0" encoding="utf-8"?>
<svg version="1.1" xmlns:xlink="http://www.w3.org/1999/xlink" width="34px" height="34px" xmlns="http://www.w3.org/2000/svg">
  <g transform="matrix(1 0 0 1 -419 -401 )">
    <path d="M 31.6279069767442 34  L 2.37209302325581 34  C 1.04372093023255 34  0 33.1024  0 31.96  L 0 2.04  C 0 0.897599999999995  1.04372093023255 0  2.37209302325581 0  L 31.6279069767442 0  C 32.9562790697674 0  34 0.897599999999995  34 2.04  L 34 31.96  C 34 33.1024  32.9562790697674 34  31.6279069767442 34  Z M 23.5338379562771 19.1018526785714  C 23.4091097720897 18.73453125  23.2579967797088 18.4152120535714  23.0804989791345 18.1438950892857  C 22.9030011785602 17.872578125  22.6487475723321 17.6075223214286  22.3177381604502 17.3487276785714  C 21.9867287485683 17.0899330357143  21.6893000016599 16.8812276785714  21.4254519197251 16.7226116071429  C 21.1616038377903 16.5639955357143  20.7994123798616 16.3865959821429  20.3388775459389 16.1904129464286  C 19.8783427120163 15.9942299107143  19.5137526351609 15.8481361607143  19.2451073153727 15.7521316964286  C 18.9764619955846 15.6561272321429  18.5878857294623 15.5246428571429  18.0793785170061 15.3576785714286  C 17.6284381587902 15.2074107142857  17.292631509055 15.0926227678571  17.0719585678004 15.0133147321429  C 16.8512856265458 14.9340066964286  16.5610527364175 14.8213058035714  16.2012598974155 14.6752120535714  C 15.8414670584134 14.5291183035714  15.5728217386252 14.3997209821429  15.3953239380509 14.2870200892857  C 15.2178261374766 14.1743191964286  15.0283352422688 14.0365736607143  14.8268512524277 13.8737834821429  C 14.6253672625865 13.7109933035714  14.4838487459124 13.5377678571429  14.4022957024053 13.3541071428571  C 14.3207426588981 13.1704464285714  14.2799661371446 12.9700892857143  14.2799661371446 12.7530357142857  C 14.2799661371446 12.1853571428571  14.5678004083462 11.72203125  15.1434689507495 11.3630580357143  C 15.7191374931527 11.0040848214286  16.4627093604236 10.8245982142857  17.3741845525621 10.8245982142857  C 17.7771525322444 10.8245982142857  18.1873163687067 10.8726004464286  18.6046760619491 10.9686049107143  C 19.0220357551915 11.064609375  19.3794299752668 11.1731361607143  19.6768587221752 11.2941852678571  C 19.9742874690835 11.415234375  20.2549258835051 11.5488058035714  20.51877396544 11.6948995535714  C 20.7826220473748 11.8409933035714  20.9697143236559 11.9516071428571  21.0800507942831 12.0267410714286  C 21.1903872649104 12.101875  21.2599472137842 12.1519642857143  21.2887306409043 12.1770089285714  C 21.4134588250917 12.2604910714286  21.5429842471325 12.2897098214286  21.6773069070265 12.2646651785714  C 21.8212240426274 12.2563169642857  21.9315605132547 12.18953125  22.0083163189084 12.0643080357143  L 23.174045117275 10.2360491071429  C 23.2891788257557 10.0690848214286  23.2651926364889 9.91046875  23.1020865494746 9.76020089285715  C 23.0445196952343 9.71011160714285  22.9725611274339 9.65167410714285  22.8862108460734 9.58488839285715  C 22.7998605647129 9.51810267857142  22.6127682884319 9.39705357142856  22.3249340172302 9.22174107142856  C 22.0370997460286 9.04642857142856  21.7324751423402 8.88989955357144  21.411060206165 8.75215401785714  C 21.0896452699899 8.61440848214285  20.6722855767475 8.47457589285715  20.1589811264379 8.33265625  C 19.6456766761284 8.19073660714285  19.115581893332 8.09473214285715  18.5686967780489 8.04464285714285  L 18.5686967780489 5.84071428571429  C 18.5686967780489 5.72383928571429  18.5255216373687 5.62783482142856  18.4391713560082 5.55270089285715  C 18.3528210746477 5.47756696428571  18.2424846040204 5.44  18.1081619441263 5.44  L 16.1652806135153 5.44  C 16.0405524293279 5.44  15.9326145776273 5.47965401785715  15.8414670584134 5.55896205357144  C 15.7503195391996 5.63827008928571  15.7047457795927 5.7321875  15.7047457795927 5.84071428571429  L 15.7047457795927 8.09473214285715  C 14.1984130936374 8.34517857142856  12.9751174410305 8.90450892857142  12.0348588217718 9.77272321428571  C 11.0946002025132 10.6409375  10.6244708928838 11.6510714285714  10.6244708928838 12.803125  C 10.6244708928838 13.1454017857143  10.6652474146374 13.4709821428571  10.7468004581445 13.7798660714286  C 10.8283535016516 14.08875  10.9290954965722 14.366328125  11.0490264429062 14.6126004464286  C 11.1689573892402 14.8588727678571  11.3392593330345 15.1009709821429  11.5599322742891 15.3388950892857  C 11.7806052155437 15.5768191964286  11.9892850621649 15.7813504464286  12.1859718141527 15.9524888392857  C 12.3826585661405 16.1236272321429  12.6393107912953 16.3010267857143  12.955928489617 16.4846875  C 13.2725461879388 16.6683482142857  13.5435901266537 16.8165290178571  13.7690603057617 16.9292299107143  C 13.9945304848696 17.0419308035714  14.2943578507046 17.171328125  14.6685424032668 17.317421875  C 15.0427269558289 17.463515625  15.3377570838106 17.5741294642857  15.5536327872118 17.6492633928571  C 15.769508490613 17.7243973214286  16.0645386185947 17.82875  16.4387231711568 17.9623214285714  C 16.9568248593198 18.1376339285714  17.3406038875886 18.2732924107143  17.5900602559633 18.369296875  C 17.8395166243381 18.4653013392857  18.1561343226599 18.5988727678571  18.5399133509287 18.7700111607143  C 18.9236923791976 18.9411495535714  19.2043307936192 19.0976785714286  19.3818285941935 19.2395982142857  C 19.5593263947679 19.3815178571429  19.7200338628554 19.5568303571429  19.8639509984563 19.7655357142857  C 20.0078681340571 19.9742410714286  20.0798267018575 20.19546875  20.0798267018575 20.42921875  C 20.0798267018575 21.0887276785714  19.7847965738758 21.59796875  19.1947363179125 21.9569419642857  C 18.6046760619491 22.3159151785714  17.9210696678452 22.4954017857143  17.1439171356008 22.4954017857143  C 16.7889215344521 22.4954017857143  16.4339259333035 22.4620089285714  16.0789303321548 22.3952232142857  C 14.831648490281 22.1781696428571  13.6371362647943 21.6313616071429  12.5529605099348 20.8048883928571  C 12.4666102285743 20.7130580357143  12.3514765200936 20.6754910714286  12.2075593844928 20.6921875  C 12.0540477731853 20.7088839285714  11.943711302558 20.7589732142857  11.8765499726109 20.8424553571429  L 10.3942034759225 22.53296875  C 10.2502863403217 22.6999330357143  10.2598808160284 22.8710714285714  10.4229869030427 23.0463839285714  C 10.4709592815763 23.0964732142857  10.5549109440101 23.1716071428571  10.6748418903441 23.2717857142857  C 10.7947728366781 23.3719642857143  11.0178443968594 23.5284933035714  11.3440565708879 23.7413727678571  C 11.6702687449164 23.9542522321429  12.0252643460651 24.154609375  12.4090433743339 24.3424441964286  C 12.7928224026028 24.5302790178571  13.2797420447189 24.7160267857143  13.8698023006822 24.8996875  C 14.4598625566456 25.0833482142857  15.0715103829491 25.2127455357143  15.7047457795927 25.2878794642857  L 15.7047457795927 27.4792857142857  C 15.7047457795927 27.5878125  15.7503195391996 27.6817299107143  15.8414670584134 27.7610379464286  C 15.9326145776273 27.8403459821429  16.0405524293279 27.88  16.1652806135153 27.88  L 18.1081619441263 27.88  C 18.2424846040204 27.88  18.3528210746477 27.8424330357143  18.4391713560082 27.7672991071429  C 18.5255216373687 27.6921651785714  18.5686967780489 27.5961607142857  18.5686967780489 27.4792857142857  L 18.5686967780489 25.2878794642857  C 20.0942184154176 25.0708258928571  21.3343044005113 24.5010602678571  22.28895473333 23.5785825892857  C 23.2436050661488 22.6561049107143  23.7209302325581 21.5562276785714  23.7209302325581 20.2789508928571  C 23.7209302325581 19.8615401785714  23.6585661404645 19.4691741071429  23.5338379562771 19.1018526785714  Z " fill-rule="nonzero" fill="#584cd9" stroke="none" transform="matrix(1 0 0 1 419 401 )" />
  </g>
</svg>