<?xml version="1.0" encoding="utf-8"?>
<svg version="1.1" xmlns:xlink="http://www.w3.org/1999/xlink" width="50px" height="40px" xmlns="http://www.w3.org/2000/svg">
  <g transform="matrix(1 0 0 1 -196 -200 )">
    <path d="M 35.4631696428571 26.4322916666667  C 35.6305803571429 26.2760416666667  35.7142857142857 26.0763888888889  35.7142857142857 25.8333333333333  L 35.7142857142857 20.8333333333333  C 35.7142857142857 20.5902777777778  35.6305803571429 20.390625  35.4631696428571 20.234375  C 35.2957589285714 20.078125  35.0818452380952 20  34.8214285714286 20  L 28.5714285714286 20  L 28.5714285714286 14.1666666666667  C 28.5714285714286 13.9236111111111  28.4877232142857 13.7239583333333  28.3203125 13.5677083333333  C 28.1529017857143 13.4114583333333  27.9389880952381 13.3333333333333  27.6785714285714 13.3333333333333  L 22.3214285714286 13.3333333333333  C 22.0610119047619 13.3333333333333  21.8470982142857 13.4114583333333  21.6796875 13.5677083333333  C 21.5122767857143 13.7239583333333  21.4285714285714 13.9236111111111  21.4285714285714 14.1666666666667  L 21.4285714285714 20  L 15.1785714285714 20  C 14.9181547619048 20  14.7042410714286 20.078125  14.5368303571429 20.234375  C 14.3694196428571 20.390625  14.2857142857143 20.5902777777778  14.2857142857143 20.8333333333333  L 14.2857142857143 25.8333333333333  C 14.2857142857143 26.0763888888889  14.3694196428571 26.2760416666667  14.5368303571429 26.4322916666667  C 14.7042410714286 26.5885416666667  14.9181547619048 26.6666666666667  15.1785714285714 26.6666666666667  L 21.4285714285714 26.6666666666667  L 21.4285714285714 32.5  C 21.4285714285714 32.7430555555556  21.5122767857143 32.9427083333333  21.6796875 33.0989583333333  C 21.8470982142857 33.2552083333333  22.0610119047619 33.3333333333333  22.3214285714286 33.3333333333333  L 27.6785714285714 33.3333333333333  C 27.9389880952381 33.3333333333333  28.1529017857143 33.2552083333333  28.3203125 33.0989583333333  C 28.4877232142857 32.9427083333333  28.5714285714286 32.7430555555556  28.5714285714286 32.5  L 28.5714285714286 26.6666666666667  L 34.8214285714286 26.6666666666667  C 35.0818452380952 26.6666666666667  35.2957589285714 26.5885416666667  35.4631696428571 26.4322916666667  Z M 17.8571428571429 4  L 17.8571428571429 7  L 32.1428571428571 7  L 32.1428571428571 4  L 17.8571428571429 4  Z M 6.25 6.66666666666667  L 8 6.66666666666667  L 8 40  L 6.25 40  C 4.53869047619048 40  3.06919642857143 39.4270833333333  1.84151785714286 38.28125  C 0.613839285714286 37.1354166666667  0 35.7638888888889  0 34.1666666666667  L 0 12.5  C 0 10.9027777777778  0.613839285714286 9.53125  1.84151785714286 8.38541666666666  C 3.06919642857143 7.23958333333333  4.53869047619048 6.66666666666667  6.25 6.66666666666667  Z M 35.7142857142857 6.66666666666667  L 40 6.66666666666667  L 40 40  L 10 40  L 10 6.66666666666667  L 14.2857142857143 6.66666666666667  L 14.2857142857143 2.5  C 14.2857142857143 1.80555555555555  14.546130952381 1.21527777777777  15.0669642857143 0.729166666666665  C 15.5877976190476 0.243055555555554  16.2202380952381 0  16.9642857142857 0  L 33.0357142857143 0  C 33.7797619047619 0  34.4122023809524 0.243055555555554  34.9330357142857 0.729166666666665  C 35.4538690476191 1.21527777777777  35.7142857142857 1.80555555555555  35.7142857142857 2.5  L 35.7142857142857 6.66666666666667  Z M 48.1584821428571 8.38541666666666  C 49.3861607142857 9.53125  50 10.9027777777778  50 12.5  L 50 34.1666666666667  C 50 35.7638888888889  49.3861607142857 37.1354166666667  48.1584821428571 38.28125  C 46.9308035714286 39.4270833333333  45.4613095238095 40  43.75 40  L 42 40  L 42 6.66666666666667  L 43.75 6.66666666666667  C 45.4613095238095 6.66666666666667  46.9308035714286 7.23958333333333  48.1584821428571 8.38541666666666  Z " fill-rule="nonzero" fill="#584cd9" stroke="none" transform="matrix(1 0 0 1 196 200 )" />
  </g>
</svg>