<?xml version="1.0" encoding="utf-8"?>
<svg version="1.1" xmlns:xlink="http://www.w3.org/1999/xlink" width="51px" height="40px" xmlns="http://www.w3.org/2000/svg">
  <g transform="matrix(1 0 0 1 -626 -400 )">
    <path d="M 9.861328125 28.0255681818182  C 10.5728236607143 27.3153409090909  10.9285714285714 26.4583333333333  10.9285714285714 25.4545454545455  C 10.9285714285714 24.4507575757576  10.5728236607143 23.59375  9.861328125 22.8835227272727  C 9.14983258928572 22.1732954545455  8.29129464285714 21.8181818181818  7.28571428571429 21.8181818181818  C 6.28013392857143 21.8181818181818  5.42159598214286 22.1732954545455  4.71010044642857 22.8835227272727  C 3.99860491071429 23.59375  3.64285714285714 24.4507575757576  3.64285714285714 25.4545454545455  C 3.64285714285714 26.4583333333333  3.99860491071429 27.3153409090909  4.71010044642857 28.0255681818182  C 5.42159598214286 28.7357954545455  6.28013392857143 29.0909090909091  7.28571428571429 29.0909090909091  C 8.29129464285714 29.0909090909091  9.14983258928572 28.7357954545455  9.861328125 28.0255681818182  Z M 15.3256138392857 15.2982954545455  C 16.037109375 14.5880681818182  16.3928571428571 13.7310606060606  16.3928571428571 12.7272727272727  C 16.3928571428571 11.7234848484848  16.037109375 10.8664772727273  15.3256138392857 10.15625  C 14.6141183035714 9.44602272727273  13.7555803571429 9.09090909090909  12.75 9.09090909090909  C 11.7444196428571 9.09090909090909  10.8858816964286 9.44602272727273  10.1743861607143 10.15625  C 9.462890625 10.8664772727273  9.10714285714286 11.7234848484848  9.10714285714286 12.7272727272727  C 9.10714285714286 13.7310606060606  9.462890625 14.5880681818182  10.1743861607143 15.2982954545455  C 10.8858816964286 16.0085227272727  11.7444196428571 16.3636363636364  12.75 16.3636363636364  C 13.7555803571429 16.3636363636364  14.6141183035714 16.0085227272727  15.3256138392857 15.2982954545455  Z M 30.6227678571429 28.9772727272727  C 30.2053571428571 27.8977272727273  29.5223214285714 27.0359848484848  28.5736607142857 26.3920454545455  L 31.4481026785714 15.5397727272727  C 31.5619419642857 15.0473484848485  31.4907924107143 14.5880681818182  31.2346540178571 14.1619318181818  C 30.978515625 13.7357954545454  30.61328125 13.4564393939394  30.1389508928571 13.3238636363636  C 29.6646205357143 13.1912878787879  29.2092633928571 13.2528409090909  28.7728794642857 13.5085227272727  C 28.3364955357143 13.7642045454545  28.0518973214286 14.1382575757576  27.9190848214286 14.6306818181818  L 25.0446428571429 25.4829545454545  C 23.90625 25.5776515151515  22.8911830357143 25.9895833333333  21.9994419642857 26.71875  C 21.1077008928571 27.4479166666667  20.5100446428571 28.3806818181818  20.2064732142857 29.5170454545455  C 19.8270089285714 30.9753787878788  20.0167410714286 32.3579545454545  20.7756696428571 33.6647727272727  C 21.5345982142857 34.9715909090909  22.64453125 35.8143939393939  24.10546875 36.1931818181818  C 25.56640625 36.5719696969697  26.9514508928571 36.3825757575758  28.2606026785714 35.625  C 29.5697544642857 34.8674242424242  30.4140625 33.7594696969697  30.7935267857143 32.3011363636364  C 31.0970982142857 31.1647727272727  31.0401785714286 30.0568181818182  30.6227678571429 28.9772727272727  Z M 46.2898995535714 28.0255681818182  C 47.0013950892857 27.3153409090909  47.3571428571429 26.4583333333333  47.3571428571429 25.4545454545455  C 47.3571428571429 24.4507575757576  47.0013950892857 23.59375  46.2898995535714 22.8835227272727  C 45.5784040178571 22.1732954545455  44.7198660714286 21.8181818181818  43.7142857142857 21.8181818181818  C 42.7087053571429 21.8181818181818  41.8501674107143 22.1732954545455  41.138671875 22.8835227272727  C 40.4271763392857 23.59375  40.0714285714286 24.4507575757576  40.0714285714286 25.4545454545455  C 40.0714285714286 26.4583333333333  40.4271763392857 27.3153409090909  41.138671875 28.0255681818182  C 41.8501674107143 28.7357954545455  42.7087053571429 29.0909090909091  43.7142857142857 29.0909090909091  C 44.7198660714286 29.0909090909091  45.5784040178571 28.7357954545455  46.2898995535714 28.0255681818182  Z M 28.0756138392857 9.84375  C 28.787109375 9.13352272727273  29.1428571428571 8.27651515151515  29.1428571428571 7.27272727272727  C 29.1428571428571 6.26893939393939  28.787109375 5.41193181818182  28.0756138392857 4.70170454545455  C 27.3641183035714 3.99147727272727  26.5055803571429 3.63636363636364  25.5 3.63636363636364  C 24.4944196428571 3.63636363636364  23.6358816964286 3.99147727272727  22.9243861607143 4.70170454545455  C 22.212890625 5.41193181818182  21.8571428571429 6.26893939393939  21.8571428571429 7.27272727272727  C 21.8571428571429 8.27651515151515  22.212890625 9.13352272727273  22.9243861607143 9.84375  C 23.6358816964286 10.5539772727273  24.4944196428571 10.9090909090909  25.5 10.9090909090909  C 26.5055803571429 10.9090909090909  27.3641183035714 10.5539772727273  28.0756138392857 9.84375  Z M 40.8256138392857 15.2982954545455  C 41.537109375 14.5880681818182  41.8928571428571 13.7310606060606  41.8928571428571 12.7272727272727  C 41.8928571428571 11.7234848484848  41.537109375 10.8664772727273  40.8256138392857 10.15625  C 40.1141183035714 9.44602272727273  39.2555803571429 9.09090909090909  38.25 9.09090909090909  C 37.2444196428571 9.09090909090909  36.3858816964286 9.44602272727273  35.6743861607143 10.15625  C 34.962890625 10.8664772727273  34.6071428571429 11.7234848484848  34.6071428571429 12.7272727272727  C 34.6071428571429 13.7310606060606  34.962890625 14.5880681818182  35.6743861607143 15.2982954545455  C 36.3858816964286 16.0085227272727  37.2444196428571 16.3636363636364  38.25 16.3636363636364  C 39.2555803571429 16.3636363636364  40.1141183035714 16.0085227272727  40.8256138392857 15.2982954545455  Z M 48.9793526785714 15.5681818181818  C 50.3264508928571 18.7121212121212  51 22.0075757575758  51 25.4545454545455  C 51 30.3977272727273  49.6623883928571 34.9715909090909  46.9871651785714 39.1761363636364  C 46.6266741071429 39.7253787878788  46.1143973214286 40  45.4503348214286 40  L 5.54966517857143 40  C 4.88560267857143 40  4.37332589285714 39.7253787878788  4.01283482142857 39.1761363636364  C 1.33761160714286 34.9905303030303  0 30.4166666666667  0 25.4545454545455  C 0 22.0075757575758  0.673549107142857 18.7121212121212  2.02064732142857 15.5681818181818  C 3.36774553571429 12.4242424242424  5.1796875 9.71590909090909  7.45647321428571 7.44318181818182  C 9.73325892857143 5.17045454545455  12.4464285714286 3.36174242424242  15.5959821428571 2.01704545454545  C 18.7455357142857 0.672348484848482  22.046875 0  25.5 0  C 28.953125 0  32.2544642857143 0.672348484848482  35.4040178571429 2.01704545454545  C 38.5535714285714 3.36174242424242  41.2667410714286 5.17045454545455  43.5435267857143 7.44318181818182  C 45.8203125 9.71590909090909  47.6322544642857 12.4242424242424  48.9793526785714 15.5681818181818  Z " fill-rule="nonzero" fill="#584cd9" stroke="none" transform="matrix(1 0 0 1 626 400 )" />
  </g>
</svg>