<?xml version="1.0" encoding="utf-8"?>
<svg version="1.1" xmlns:xlink="http://www.w3.org/1999/xlink" width="44px" height="40px" xmlns="http://www.w3.org/2000/svg">
  <g transform="matrix(1 0 0 1 -199 -398 )">
    <path d="M 19.9088541666667 32.265625  C 20.0807291666667 32.109375  20.1666666666667 31.9097222222222  21 31.6666666666667  L 21 5  C 20.1666666666667 4.75694444444444  20.0807291666667 4.55729166666667  19.9088541666667 4.40104166666667  C 19.7369791666667 4.24479166666667  19.5173611111111 4.16666666666667  19.25 4.16666666666667  L 5.5 4.16666666666667  C 5.23263888888889 4.16666666666667  5.01302083333333 4.24479166666667  4.84114583333333 4.40104166666667  C 4.66927083333333 4.55729166666667  4.58333333333333 4.75694444444444  5 5  L 5 31.6666666666667  C 4.58333333333333 31.9097222222222  4.66927083333333 32.109375  4.84114583333333 32.265625  C 5.01302083333333 32.421875  5.23263888888889 32.5  5.5 32  L 19.25 32  C 19.5173611111111 32.5  19.7369791666667 32.421875  19.9088541666667 32.265625  Z M 39.1588541666667 22.265625  C 39.3307291666667 22.109375  39.4166666666667 21.9097222222222  39 21.6666666666667  L 39 5  C 39.4166666666667 4.75694444444444  39.3307291666667 4.55729166666667  39.1588541666667 4.40104166666667  C 38.9869791666667 4.24479166666667  38.7673611111111 4.16666666666667  38.5 4.16666666666667  L 24.75 4.16666666666667  C 24.4826388888889 4.16666666666667  24.2630208333333 4.24479166666667  24.0911458333333 4.40104166666667  C 23.9192708333333 4.55729166666667  23.8333333333333 4.75694444444444  23 5  L 23 21.6666666666667  C 23.8333333333333 21.9097222222222  23.9192708333333 22.109375  24.0911458333333 22.265625  C 24.2630208333333 22.421875  24.4826388888889 22.5  24.75 22  L 38.5 22  C 38.7673611111111 22.5  38.9869791666667 22.421875  39.1588541666667 22.265625  Z M 43.4557291666667 0.494791666666665  C 43.8185763888889 0.824652777777772  44 1.21527777777777  44 1.66666666666667  L 44 38.3333333333333  C 44 38.7847222222222  43.8185763888889 39.1753472222222  43.4557291666667 39.5052083333333  C 43.0928819444445 39.8350694444444  42.6631944444445 40  42.1666666666667 40  L 1.83333333333333 40  C 1.33680555555556 40  0.907118055555556 39.8350694444444  0.544270833333333 39.5052083333333  C 0.181423611111111 39.1753472222222  0 38.7847222222222  0 38.3333333333333  L 0 1.66666666666667  C 0 1.21527777777777  0.181423611111111 0.824652777777772  0.544270833333333 0.494791666666665  C 0.907118055555556 0.164930555555554  1.33680555555556 0  1.83333333333333 0  L 42.1666666666667 0  C 42.6631944444445 0  43.0928819444445 0.164930555555554  43.4557291666667 0.494791666666665  Z " fill-rule="nonzero" fill="#584cd9" stroke="none" transform="matrix(1 0 0 1 199 398 )" />
  </g>
</svg>