<?xml version="1.0" encoding="utf-8"?>
<svg version="1.1" xmlns:xlink="http://www.w3.org/1999/xlink" width="50px" height="40px" xmlns="http://www.w3.org/2000/svg">
  <g transform="matrix(1 0 0 1 -841 -200 )">
    <path d="M 34.1238839285714 22.421875  C 34.4587053571429 23.0295138888889  34.9888392857143 23.3333333333333  35.7142857142857 23.3333333333333  L 44.2243303571429 23.3333333333333  C 44.1313244047619 23.4375  44.038318452381 23.5286458333333  43.9453125 23.6067708333333  C 43.8523065476191 23.6848958333333  43.7686011904762 23.75  43.6941964285714 23.8020833333333  L 43.6104910714286 23.90625  L 26.2276785714286 39.53125  C 25.8928571428571 39.84375  25.483630952381 40  25 40  C 24.5163690476191 40  24.1071428571429 39.84375  23.7723214285714 39.53125  L 6.36160714285714 23.8541666666667  C 6.26860119047619 23.8194444444444  6.07328869047619 23.6458333333333  5.77566964285714 23  L 16.0714285714286 23  C 16.4806547619048 23.3333333333333  16.8480282738095 23.2161458333333  17.1735491071429 22.9817708333333  C 17.4990699404762 22.7473958333333  17.7083333333333 22.4479166666667  17.8013392857143 22.0833333333333  L 19.7544642857143 14.765625  L 25.0558035714286 32.1354166666667  C 25.1674107142857 32.4826388888889  25.3813244047619 32.7690972222222  25.6975446428571 32.9947916666667  C 26.0137648809524 33.2204861111111  26.3764880952381 33.3333333333333  26.7857142857143 33.3333333333333  C 27.1763392857143 33.3333333333333  27.5297619047619 33.2204861111111  27.8459821428571 32.9947916666667  C 28.1622023809524 32.7690972222222  28.3761160714286 32.4826388888889  28.4877232142857 32.1354166666667  L 32.5613839285714 19.5052083333333  L 34.1238839285714 22.421875  Z M 46.4564732142857 3.22916666666667  C 48.8188244047619 5.38194444444444  50 8.36805555555555  50 12.1875  C 50 14.7048611111111  49.0420386904762 17.3090277777778  47.1261160714286 20  L 36.8303571428571 20  L 33.7332589285714 14.2447916666667  C 33.5844494047619 13.9496527777778  33.3472842261905 13.7152777777778  33.0217633928571 13.5416666666667  C 32.6962425595238 13.3680555555556  32.3567708333333 13.2986111111111  32.0033482142857 13.3333333333333  C 31.1662946428571 13.4201388888889  30.6454613095238 13.8194444444444  30.4408482142857 14.53125  L 26.8415178571429 25.7291666666667  L 21.3727678571429 7.86458333333333  C 21.2611607142857 7.51736111111111  21.0425967261905 7.23090277777777  20.7170758928571 7.00520833333333  C 20.3915550595238 6.77951388888889  20.0241815476191 6.66666666666667  19.6149553571429 6.66666666666667  C 19.2057291666667 6.66666666666667  18.843005952381 6.78385416666667  18.5267857142857 7.01822916666667  C 18.2105654761905 7.25260416666667  18.0059523809524 7.55208333333333  17.9129464285714 7.91666666666667  L 14.6763392857143 20  L 2.87388392857143 20  C 0.957961309523809 17.3090277777778  0 14.7048611111111  0 12.1875  C 0 8.36805555555555  1.1811755952381 5.38194444444444  3.54352678571429 3.22916666666667  C 5.90587797619048 1.07638888888889  9.1703869047619 0  13.3370535714286 0  C 14.4903273809524 0  15.6668526785714 0.186631944444442  16.8666294642857 0.559895833333335  C 18.06640625 0.933159722222219  19.1824776785714 1.43663194444444  20.21484375 2.0703125  C 21.2472098214286 2.70399305555555  22.1354166666667 3.29861111111111  22.8794642857143 3.85416666666667  C 23.6235119047619 4.40972222222222  24.3303571428571 5  25 5.625  C 25.6696428571429 5  26.3764880952381 4.40972222222222  27.1205357142857 3.85416666666667  C 27.8645833333333 3.29861111111111  28.7527901785714 2.70399305555555  29.78515625 2.0703125  C 30.8175223214286 1.43663194444444  31.93359375 0.933159722222219  33.1333705357143 0.559895833333335  C 34.3331473214286 0.186631944444442  35.5096726190476 0  36.6629464285714 0  C 40.8296130952381 0  44.0941220238095 1.07638888888889  46.4564732142857 3.22916666666667  Z " fill-rule="nonzero" fill="#584cd9" stroke="none" transform="matrix(1 0 0 1 841 200 )" />
  </g>
</svg>