<?xml version="1.0" encoding="utf-8"?>
<svg version="1.1" xmlns:xlink="http://www.w3.org/1999/xlink" width="13px" height="16px" xmlns="http://www.w3.org/2000/svg">
  <g transform="matrix(1 0 0 1 -209 -541 )">
    <path d="M 4.30255681818182 3.30288461538462  C 4.37026515151515 3.37660256410256  4.45336174242424 3.41346153846154  4.55184659090909 3.41346153846154  C 4.65033143939394 3.41346153846154  4.73496685606061 3.37660256410256  4.80575284090909 3.30288461538462  C 4.87653882575758 3.22916666666667  4.91193181818182 3.14102564102564  4.91193181818182 3.03846153846154  C 4.91193181818182 2.93589743589743  4.87653882575758 2.84775641025641  4.80575284090909 2.77403846153846  C 4.73496685606061 2.70032051282051  4.65033143939394 2.66346153846154  4.55184659090909 2.66346153846154  C 4.45336174242424 2.66346153846154  4.37026515151515 2.70032051282051  4.30255681818182 2.77403846153846  C 4.23484848484848 2.84775641025641  4.20099431818182 2.93589743589743  4.20099431818182 3.03846153846154  C 4.20099431818182 3.14102564102564  4.23484848484848 3.22916666666667  4.30255681818182 3.30288461538462  Z M 8.19424715909091 3.30288461538462  C 8.26503314393939 3.37660256410256  8.34966856060606 3.41346153846154  8.44815340909091 3.41346153846154  C 8.54663825757576 3.41346153846154  8.62973484848485 3.37660256410256  8.69744318181818 3.30288461538462  C 8.76515151515152 3.22916666666667  8.79900568181818 3.14102564102564  8.79900568181818 3.03846153846154  C 8.79900568181818 2.93589743589743  8.76515151515152 2.84775641025641  8.69744318181818 2.77403846153846  C 8.62973484848485 2.70032051282051  8.54663825757576 2.66346153846154  8.44815340909091 2.66346153846154  C 8.34966856060606 2.66346153846154  8.26503314393939 2.70032051282051  8.19424715909091 2.77403846153846  C 8.12346117424243 2.84775641025641  8.08806818181818 2.93589743589743  8.08806818181818 3.03846153846154  C 8.08806818181818 3.14102564102564  8.12346117424243 3.22916666666667  8.19424715909091 3.30288461538462  Z M 0.276988636363636 5.47115384615385  C 0.461647727272727 5.27884615384615  0.686316287878788 5.18269230769231  0.950994318181818 5.18269230769231  C 1.20951704545455 5.18269230769231  1.43110795454545 5.27884615384615  1.61576704545455 5.47115384615385  C 1.80042613636364 5.66346153846154  1.89275568181818 5.89423076923077  1.89275568181818 6.16346153846154  L 1.89275568181818 10.2980769230769  C 1.89275568181818 10.5737179487179  1.80196496212121 10.8076923076923  1.62038352272727 11  C 1.43880208333333 11.1923076923077  1.21567234848485 11.2884615384615  0.950994318181818 11.2884615384615  C 0.686316287878788 11.2884615384615  0.461647727272727 11.1923076923077  0.276988636363636 11  C 0.0923295454545455 10.8076923076923  0 10.5737179487179  0 10.2980769230769  L 0 6.16346153846154  C 0 5.89423076923077  0.0923295454545455 5.66346153846154  0.276988636363636 5.47115384615385  Z M 2.26207386363636 5.36538461538462  L 10.7379261363636 5.36538461538462  L 10.7379261363636 11.7692307692308  C 10.7379261363636 12.0641025641026  10.6394412878788 12.3141025641026  10.4424715909091 12.5192307692308  C 10.2455018939394 12.724358974359  10.0085227272727 12.8269230769231  9.73153409090909 12.8269230769231  L 9.0390625 12.8269230769231  L 9.0390625 15.0096153846154  C 9.0390625 15.2852564102564  8.94673295454546 15.5192307692308  8.76207386363636 15.7115384615385  C 8.57741477272727 15.9038461538462  8.35274621212121 16  8.08806818181818 16  C 7.82339015151515 16  7.59872159090909 15.9038461538462  7.4140625 15.7115384615385  C 7.22940340909091 15.5192307692308  7.13707386363636 15.2852564102564  7.13707386363636 15.0096153846154  L 7.13707386363636 12.8269230769231  L 5.86292613636364 12.8269230769231  L 5.86292613636364 15.0096153846154  C 5.86292613636364 15.2852564102564  5.77059659090909 15.5192307692308  5.5859375 15.7115384615385  C 5.40127840909091 15.9038461538462  5.17660984848485 16  4.91193181818182 16  C 4.65340909090909 16  4.43181818181818 15.9038461538462  4.24715909090909 15.7115384615385  C 4.0625 15.5192307692308  3.97017045454546 15.2852564102564  3.97017045454546 15.0096153846154  L 3.9609375 12.8269230769231  L 3.27769886363636 12.8269230769231  C 2.99455492424242 12.8269230769231  2.75449810606061 12.724358974359  2.55752840909091 12.5192307692308  C 2.36055871212121 12.3141025641026  2.26207386363636 12.0641025641026  2.26207386363636 11.7692307692308  L 2.26207386363636 5.36538461538462  Z M 9.25142045454546 0.211538461538462  L 8.59588068181818 1.47115384615385  C 9.25449810606061 1.82371794871795  9.78077651515152 2.31570512820513  10.1747159090909 2.94711538461539  C 10.5686553030303 3.57852564102564  10.765625 4.26923076923077  10.765625 5.01923076923077  L 2.22514204545455 5.01923076923077  C 2.22514204545455 4.26923076923077  2.42211174242424 3.57852564102564  2.81605113636364 2.94711538461539  C 3.20999053030303 2.31570512820513  3.73934659090909 1.82371794871795  4.40411931818182 1.47115384615385  L 3.74857954545455 0.211538461538462  C 3.70549242424242 0.128205128205128  3.72088068181818 0.0641025641025621  3.79474431818182 0.0192307692307701  C 3.87476325757576 -0.0192307692307701  3.93631628787879 0  3.97940340909091 0.0769230769230767  L 4.64417613636364 1.34615384615385  C 5.22892992424242 1.07692307692308  5.84753787878788 0.942307692307692  6.5 0.942307692307692  C 7.15246212121212 0.942307692307692  7.77107007575758 1.07692307692308  8.35582386363636 1.34615384615385  L 9.02059659090909 0.0769230769230767  C 9.06368371212121 0  9.12523674242424 -0.0192307692307701  9.20525568181818 0.0192307692307701  C 9.27911931818182 0.0641025641025621  9.29450757575758 0.128205128205128  9.25142045454546 0.211538461538462  Z M 12.7230113636364 5.46634615384615  C 12.9076704545455 5.65544871794872  13 5.88782051282051  13 6.16346153846154  L 13 10.2980769230769  C 13 10.5737179487179  12.9076704545455 10.8076923076923  12.7230113636364 11  C 12.5383522727273 11.1923076923077  12.3136837121212 11.2884615384615  12.0490056818182 11.2884615384615  C 11.7904829545455 11.2884615384615  11.5688920454545 11.1923076923077  11.3842329545455 11  C 11.1995738636364 10.8076923076923  11.1072443181818 10.5737179487179  11.1072443181818 10.2980769230769  L 11.1072443181818 6.16346153846154  C 11.1072443181818 5.88782051282051  11.1995738636364 5.65544871794872  11.3842329545455 5.46634615384615  C 11.5688920454545 5.27724358974359  11.7904829545455 5.18269230769231  12.0490056818182 5.18269230769231  C 12.3136837121212 5.18269230769231  12.5383522727273 5.27724358974359  12.7230113636364 5.46634615384615  Z " fill-rule="nonzero" fill="#ffffff" stroke="none" transform="matrix(1 0 0 1 209 541 )" />
  </g>
</svg>