<?xml version="1.0" encoding="utf-8"?>
<svg version="1.1" xmlns:xlink="http://www.w3.org/1999/xlink" width="17px" height="32px" xmlns="http://www.w3.org/2000/svg">
  <g transform="matrix(1 0 0 1 -410 -4262 )">
    <path d="M 12.5138888888889 0  C 14.4421296296296 0  15.9375 0.0769230769230767  17 0.23076923076923  L 17 5.30769230769231  L 13.9108796296296 5.30769230769231  C 12.7827932098765 5.30769230769231  12.0219907407407 5.53846153846154  11.6284722222222 6  C 11.2349537037037 6.46153846153846  11.0381944444444 7.15384615384615  11.0381944444444 8.07692307692308  L 11.0381944444444 11.7115384615385  L 16.8032407407407 11.7115384615385  L 16.0358796296296 17.4038461538462  L 11 17.4038461538462  L 11 32  L 5 32  L 5 17.4038461538462  L 0 17.4038461538462  L 0 11.7115384615385  L 5.01736111111111 11.7115384615385  L 5.01736111111111 7.51923076923077  C 5.01736111111111 5.13461538461538  5.69945987654321 3.28525641025641  7.06365740740741 1.97115384615385  C 8.42785493827161 0.657051282051285  10.2445987654321 0  12.5138888888889 0  Z " fill-rule="nonzero" fill="#252c38" stroke="none" transform="matrix(1 0 0 1 410 4262 )" />
  </g>
</svg>