<?xml version="1.0" encoding="utf-8"?>
<svg version="1.1" xmlns:xlink="http://www.w3.org/1999/xlink" width="13px" height="16px" xmlns="http://www.w3.org/2000/svg">
  <g transform="matrix(1 0 0 1 -17 -540 )">
    <path d="M 11.5254845656856 10.4711538461538  C 11.9547738693467 11.1057692307692  12.4462790141182 11.5096153846154  13 11.6826923076923  C 12.7573582196698 12.4839743589744  12.3747307968413 13.2852564102564  11.8521177315147 14.0865384615385  C 11.0495333811917 15.3429487179487  10.2500598229241 15.9711538461538  9.45369705671213 15.9711538461538  C 9.1488394352716 15.9711538461538  8.7133285474994 15.8685897435897  8.14716439339555 15.6634615384615  C 7.61210815984685 15.4583333333333  7.14237855946399 15.3557692307692  6.73797559224695 15.3557692307692  C 6.35845896147404 15.3557692307692  5.91672648959081 15.4615384615385  5.41277817659727 15.6730769230769  C 4.90882986360373 15.8910256410256  4.49820531227566 16  4.18090452261307 16  C 3.2352237377363 16  2.29887532902608 15.1698717948718  1.37185929648241 13.5096153846154  C 0.457286432160804 11.8365384615385  0 10.224358974359  0 8.67307692307692  C 0 7.21153846153846  0.351519502273271 6.01282051282051  1.05455850681981 5.07692307692308  C 1.75759751136636 4.15384615384615  2.64106245513281 3.69230769230769  3.70495333811917 3.69230769230769  C 4.15290739411342 3.69230769230769  4.7035175879397 3.78846153846154  5.35678391959799 3.98076923076923  C 6.00382866714525 4.17307692307692  6.43311797080641 4.26923076923077  6.64465183058148 4.26923076923077  C 6.92462311557789 4.26923076923077  7.36946637951663 4.16025641025641  7.9791816223977 3.94230769230769  C 8.6137832017229 3.72435897435897  9.15195022732711 3.61538461538462  9.59368269921034 3.61538461538462  C 10.3340512084231 3.61538461538462  10.9966499162479 3.82371794871795  11.5814788226849 4.24038461538462  C 11.9050011964585 4.47115384615385  12.2285235702321 4.79166666666667  12.5520459440057 5.20192307692308  C 12.0605407992343 5.63141025641026  11.7059105049055 6.00961538461539  11.4881550610194 6.33653846153846  C 11.0837520938023 6.93910256410256  10.8815506101938 7.6025641025641  10.8815506101938 8.32692307692308  C 10.8815506101938 9.12179487179487  11.0961952620244 9.83653846153846  11.5254845656856 10.4711538461538  Z M 9.48636037329505 0.307692307692308  C 9.48947116535056 0.346153846153847  9.49102656137832 0.378205128205128  9.49102656137832 0.403846153846153  C 9.49102656137832 0.794871794871794  9.40081359176837 1.23076923076923  9.22038765254846 1.71153846153846  C 9.03374012921752 2.19230769230769  8.74443646805456 2.63461538461539  8.35247666905958 3.03846153846154  C 8.01651112706389 3.38461538461539  7.6805455850682 3.61538461538462  7.34458004307251 3.73076923076923  C 7.11438143096434 3.80128205128205  6.79085905719072 3.85576923076923  6.37401292175162 3.89423076923077  C 6.39267767408471 2.93910256410256  6.63531945441493 2.11538461538462  7.10193826274228 1.42307692307692  C 7.5623354869586 0.737179487179485  8.34003350083752 0.262820512820513  9.43503230437904 0  C 9.44125388849007 0.0192307692307701  9.44903086862886 0.0544871794871789  9.45836324479541 0.10576923076923  C 9.46769562096195 0.157051282051281  9.47547260110074 0.192307692307692  9.48169418521177 0.211538461538462  C 9.48169418521177 0.237179487179485  9.48324958123953 0.26923076923077  9.48636037329505 0.307692307692308  Z " fill-rule="nonzero" fill="#ffffff" stroke="none" transform="matrix(1 0 0 1 17 540 )" />
  </g>
</svg>