<?xml version="1.0" encoding="utf-8"?>
<svg version="1.1" xmlns:xlink="http://www.w3.org/1999/xlink" width="26px" height="21px" xmlns="http://www.w3.org/2000/svg">
  <g transform="matrix(1 0 0 1 -502 -4268 )">
    <path d="M 22.9314720812183 3.3140625  C 23.9543147208122 3.2046875  24.9771573604061 2.93125  26 2.49375  C 25.2631133671743 3.565625  24.3722504230118 4.47890625  23.3274111675127 5.23359375  C 23.3384094754653 5.38671875  23.3439086294416 5.61640625  23.3439086294416 5.92265625  C 23.3439086294416 7.34453125  23.1349407783418 8.763671875  22.7170050761421 10.180078125  C 22.2990693739425 11.596484375  21.6639170896785 12.95546875  20.8115482233503 14.25703125  C 19.959179357022 15.55859375  18.9445854483926 16.709765625  17.7677664974619 17.710546875  C 16.5909475465313 18.711328125  15.172165820643 19.509765625  13.511421319797 20.105859375  C 11.8506768189509 20.701953125  10.0744500846024 21  8.18274111675127 21  C 5.20219966159052 21  2.4746192893401 20.20703125  0 18.62109375  C 0.384940778341794 18.66484375  0.813874788494078 18.68671875  1.28680203045685 18.68671875  C 3.76142131979696 18.68671875  5.9665820642978 17.93203125  7.90228426395939 16.42265625  C 6.74746192893401 16.40078125  5.71362098138748 16.048046875  4.8007614213198 15.364453125  C 3.88790186125212 14.680859375  3.26099830795262 13.80859375  2.92005076142132 12.74765625  C 3.28299492385787 12.80234375  3.61844331641286 12.8296875  3.92639593908629 12.8296875  C 4.39932318104907 12.8296875  4.86675126903553 12.76953125  5.32868020304569 12.64921875  C 4.09686971235195 12.39765625  3.07677664974619 11.787890625  2.26840101522843 10.819921875  C 1.46002538071066 9.851953125  1.05583756345178 8.728125  1.05583756345178 7.4484375  L 1.05583756345178 7.3828125  C 1.80372250423012 7.7984375  2.60659898477157 8.02265625  3.46446700507614 8.05546875  C 2.73857868020305 7.57421875  2.16116751269036 6.9453125  1.73223350253807 6.16875  C 1.30329949238579 5.3921875  1.08883248730964 4.55  1.08883248730964 3.6421875  C 1.08883248730964 2.6796875  1.33079526226734 1.78828125  1.81472081218274 0.967968750000001  C 3.14551607445009 2.59765625  4.76501692047377 3.901953125  6.67322335025381 4.880859375  C 8.58142978003384 5.859765625  10.6243654822335 6.40390625  12.8020304568528 6.51328125  C 12.7140439932318 6.09765625  12.6700507614213 5.69296875  12.6700507614213 5.29921875  C 12.6700507614213 3.83359375  13.1897208121827 2.583984375  14.2290609137056 1.550390625  C 15.2684010152284 0.516796875000001  16.5249576988156 0  17.998730964467 0  C 19.5384940778342 0  20.8362944162437 0.557812500000001  21.8921319796954 1.6734375  C 23.0909475465313 1.44375  24.2182741116751 1.0171875  25.2741116751269 0.393750000000001  C 24.8671742808799 1.6515625  24.0862944162437 2.625  22.9314720812183 3.3140625  Z " fill-rule="nonzero" fill="#252c38" stroke="none" transform="matrix(1 0 0 1 502 4268 )" />
  </g>
</svg>