<?xml version="1.0" encoding="utf-8"?>
<svg version="1.1" xmlns:xlink="http://www.w3.org/1999/xlink" width="28px" height="20px" xmlns="http://www.w3.org/2000/svg">
  <g transform="matrix(1 0 0 1 -597 -4268 )">
    <path d="M 11.1125975473802 5.6984126984127  L 11.1125975473802 13.6825396825397  L 18.6666666666667 9.71428571428572  L 11.1125975473802 5.6984126984127  Z M 4.21404682274247 0.285714285714285  C 6.82571534745448 0.0952380952380949  10.0876997398737 0  14 0  C 15.7480490523969 0  17.4362690449647 0.0238095238095237  19.0646599777035 0.0714285714285712  C 20.6930509104422 0.119047619047619  21.8870308435526 0.169312169312168  22.6465997770346 0.222222222222221  L 23.7859531772575 0.285714285714285  C 23.7963582311408 0.285714285714285  23.884801189149 0.293650793650793  24.0512820512821 0.309523809523808  C 24.2177629134151 0.325396825396826  24.3374210330732 0.341269841269842  24.4102564102564 0.357142857142858  C 24.4830917874396 0.373015873015874  24.6053511705686 0.396825396825398  24.7770345596433 0.428571428571429  C 24.9487179487179 0.460317460317461  25.0969899665552 0.5026455026455  25.221850613155 0.555555555555556  C 25.3467112597547 0.608465608465607  25.4923820141211 0.677248677248674  25.6588628762542 0.761904761904761  C 25.8253437383872 0.846560846560844  25.9866220735786 0.949735449735449  26.1426978818283 1.07142857142857  C 26.298773690078 1.19312169312169  26.4496469713861 1.33333333333333  26.5953177257525 1.49206349206349  C 26.6577480490524 1.55555555555555  26.7383872166481 1.65343915343915  26.8372352285396 1.78571428571429  C 26.9360832404311 1.91798941798942  27.0869565217391 2.22751322751323  27.2898550724638 2.71428571428571  C 27.4927536231884 3.2010582010582  27.6306205871423 3.73544973544973  27.7034559643255 4.31746031746032  C 27.7866963953921 4.99470899470899  27.8517279821628 5.71693121693122  27.8985507246377 6.48412698412698  C 27.9453734671126 7.25132275132275  27.9739873652917 7.85185185185185  27.984392419175 8.28571428571428  L 27.984392419175 8.92063492063492  L 27.984392419175 11.0793650793651  C 27.9947974730583 12.6137566137566  27.9011519881085 14.1481481481481  27.7034559643255 15.6825396825397  C 27.6306205871423 16.2645502645503  27.5005574136009 16.7910052910053  27.3132664437012 17.2619047619048  C 27.1259754738016 17.7328042328042  26.9594946116685 18.0582010582011  26.8138238573021 18.2380952380952  L 26.5953177257525 18.5079365079365  C 26.4496469713861 18.6666666666667  26.298773690078 18.8068783068783  26.1426978818283 18.9285714285714  C 25.9866220735786 19.0502645502646  25.8253437383872 19.1507936507937  25.6588628762542 19.2301587301587  C 25.4923820141211 19.3095238095238  25.3467112597547 19.3756613756614  25.221850613155 19.4285714285714  C 25.0969899665552 19.4814814814815  24.9487179487179 19.5238095238095  24.7770345596433 19.5555555555556  C 24.6053511705686 19.5873015873016  24.4804905239688 19.6111111111111  24.4024526198439 19.6269841269841  C 24.3244147157191 19.6428571428571  24.2047565960609 19.6587301587302  24.0434782608696 19.6746031746032  C 23.8821999256782 19.6904761904762  23.7963582311408 19.6984126984127  23.7859531772575 19.6984126984127  C 21.1742846525455 19.8994708994709  17.9123002601263 20  14 20  C 11.8461538461538 19.978835978836  9.97584541062802 19.9444444444444  8.38907469342252 19.8968253968254  C 6.80230397621702 19.8492063492063  5.75919732441472 19.8095238095238  5.25975473801561 19.7777777777778  L 4.49498327759197 19.7142857142857  L 3.93311036789298 19.6507936507936  C 3.55852842809365 19.5978835978836  3.27499070977332 19.5449735449735  3.082497212932 19.4920634920635  C 2.89000371609067 19.4391534391534  2.62467484206615 19.3280423280423  2.28651059085842 19.1587301587302  C 1.94834633965069 18.989417989418  1.65440356744705 18.7724867724868  1.40468227424749 18.5079365079365  C 1.3422519509476 18.4444444444444  1.26161278335191 18.3465608465608  1.16276477146042 18.2142857142857  C 1.06391675956893 18.0820105820106  0.91304347826087 17.7724867724868  0.710144927536232 17.2857142857143  C 0.507246376811594 16.7989417989418  0.369379412857674 16.2645502645503  0.29654403567447 15.6825396825397  C 0.213303604607952 15.005291005291  0.148272017837235 14.2830687830688  0.101449275362319 13.515873015873  C 0.0546265328874025 12.7486772486772  0.0260126347082869 12.1481481481481  0.0156075808249721 11.7142857142857  L 0.0156075808249721 11.0793650793651  L 0.0156075808249721 8.92063492063492  C 0.00520252694165738 7.38624338624339  0.0988480118914901 5.85185185185185  0.29654403567447 4.31746031746032  C 0.369379412857674 3.73544973544973  0.499442586399108 3.20899470899471  0.686733556298774 2.73809523809524  C 0.874024526198439 2.26719576719577  1.04050538833148 1.94179894179894  1.18617614269788 1.76190476190476  L 1.40468227424749 1.49206349206349  C 1.5503530286139 1.33333333333333  1.70122630992196 1.19312169312169  1.85730211817168 1.07142857142857  C 2.0133779264214 0.949735449735449  2.17465626161278 0.846560846560844  2.34113712374582 0.761904761904761  C 2.50761798587886 0.677248677248674  2.65328874024526 0.608465608465607  2.77814938684504 0.555555555555556  C 2.90301003344482 0.5026455026455  3.05128205128205 0.460317460317461  3.22296544035674 0.428571428571429  C 3.39464882943144 0.396825396825398  3.51690821256039 0.373015873015874  3.58974358974359 0.357142857142858  C 3.66257896692679 0.341269841269842  3.78223708658491 0.325396825396826  3.94871794871795 0.309523809523808  C 4.11519881085098 0.293650793650793  4.20364176885916 0.285714285714285  4.21404682274247 0.285714285714285  Z " fill-rule="nonzero" fill="#252c38" stroke="none" transform="matrix(1 0 0 1 597 4268 )" />
  </g>
</svg>